<svg width="81" height="29" viewBox="0 0 81 29" fill="none" xmlns="http://www.w3.org/2000/svg">
<path d="M5.524 7.588C5.99067 6.86 6.63467 6.272 7.456 5.824C8.27733 5.376 9.23867 5.152 10.34 5.152C11.628 5.152 12.7947 5.47867 13.84 6.132C14.8853 6.78533 15.7067 7.71867 16.304 8.932C16.92 10.1453 17.228 11.5547 17.228 13.16C17.228 14.7653 16.92 16.184 16.304 17.416C15.7067 18.6293 14.8853 19.572 13.84 20.244C12.7947 20.8973 11.628 21.224 10.34 21.224C9.25733 21.224 8.296 21 7.456 20.552C6.63467 20.104 5.99067 19.5253 5.524 18.816V28.448H0.736V5.376H5.524V7.588ZM12.356 13.16C12.356 11.9653 12.02 11.032 11.348 10.36C10.6947 9.66933 9.88267 9.324 8.912 9.324C7.96 9.324 7.148 9.66933 6.476 10.36C5.82267 11.0507 5.496 11.9933 5.496 13.188C5.496 14.3827 5.82267 15.3253 6.476 16.016C7.148 16.7067 7.96 17.052 8.912 17.052C9.864 17.052 10.676 16.7067 11.348 16.016C12.02 15.3067 12.356 14.3547 12.356 13.16ZM36.4279 12.936C36.4279 13.384 36.3999 13.8507 36.3439 14.336H25.5079C25.5826 15.3067 25.8906 16.0533 26.4319 16.576C26.9919 17.08 27.6732 17.332 28.4759 17.332C29.6706 17.332 30.5012 16.828 30.9679 15.82H36.0639C35.8026 16.8467 35.3266 17.7707 34.6359 18.592C33.9639 19.4133 33.1146 20.0573 32.0879 20.524C31.0612 20.9907 29.9132 21.224 28.6439 21.224C27.1132 21.224 25.7506 20.8973 24.5559 20.244C23.3612 19.5907 22.4279 18.6573 21.7559 17.444C21.0839 16.2307 20.7479 14.812 20.7479 13.188C20.7479 11.564 21.0746 10.1453 21.7279 8.932C22.3999 7.71867 23.3332 6.78533 24.5279 6.132C25.7226 5.47867 27.0946 5.152 28.6439 5.152C30.1559 5.152 31.4999 5.46933 32.6759 6.104C33.8519 6.73867 34.7666 7.644 35.4199 8.82C36.0919 9.996 36.4279 11.368 36.4279 12.936ZM31.5279 11.676C31.5279 10.8547 31.2479 10.2013 30.6879 9.716C30.1279 9.23067 29.4279 8.988 28.5879 8.988C27.7852 8.988 27.1039 9.22133 26.5439 9.688C26.0026 10.1547 25.6666 10.8173 25.5359 11.676H31.5279ZM59.0368 0.28V21H54.2488V0.28H59.0368ZM80.4266 5.376L70.6266 28.42H65.4746L69.0586 20.468L62.7026 5.376H68.0506L71.6626 15.148L75.2466 5.376H80.4266Z" fill="#111111"/>
<path d="M49.6218 16.94V21H47.1858C45.4498 21 44.0965 20.58 43.1258 19.74C42.1551 18.8813 41.6698 17.4907 41.6698 15.568V9.352H39.7658V5.376H41.6698V1.568H46.4578V5.376H49.5938V9.352H46.4578V15.624C46.4578 16.0907 46.5698 16.4267 46.7938 16.632C47.0178 16.8373 47.3911 16.94 47.9138 16.94H49.6218Z" fill="#F59256"/>
</svg>
